{"title":"Tower Heist 2011 TS READNFO XviD - MiSTERE","uid":6820842,"size":1453266595,"categoryP":"video","categoryS":"movies","magnet":"?xt=urn:btih:fa4a33d752de420051d43a00a58db009a509f1ac&amp;dn=Tower+Heist+2011+TS+READNFO+XviD+-+MiSTERE&amp;tr=udp%3A%2F%2Ftracker.openbittorrent.com%3A80&amp;tr=udp%3A%2F%2Fopen.demonii.com%3A1337&amp;tr=udp%3A%2F%2Ftracker.coppersurfer.tk%3A6969&amp;tr=udp%3A%2F%2Fexodus.desync.com%3A6969","seeders":0,"leechers":0,"uploader":"crazy-torrent","files":2,"time":1321380781,"description":" &lt;a href=&quot; http://www.scenespeeds.com/&quot; rel=&quot;nofollow&quot; target=&quot;_NEW&quot;&gt; http://www.scenespeeds.com/&lt;/a&gt;\n\n  |  | |  | |  | \n  |/\\| |/\\| |/\\|,\n  ~  ~ ~  ~ ~  ~~\n                  \n   _, __,  _, ___,\n  / ` |_) /_\\ ` / \n  \\ , | \\ | |  /  \n   ~  ~ ~ ~ ~ ~~~ \n                  \n , _    ___  _, __,\n \\ |     |  / \\ |_)\n  \\| ~~  |  \\ / | \\\n   )     ~   ~  ~ ~\n  ~'               \n  __, __, _, _ ___ \n  |_) |_  |\\ |  |  \n  | \\ |   | \\|  | ,\n  ~ ~ ~~~ ~  ~  ~ ~\n                   \n     _,  _, _, _\n    / ` / \\ |\\/|\n    \\ , \\ / |  |\n\n Description\n\nSource:\nV: German\nA: Thanks\n\nVideo\nID: 0\nFormat: MPEG-4 Visual\nFormat profile: Advanced Simple@L5\nFormat settings, BVOP: 2\nFormat settings, QPel: No\nFormat settings, GMC: No warppoints\nFormat settings, Matrix: Default (H.263)\nCodec ID: XVID\nCodec ID/Hint: XviD\nDuration: 1h 38mn\nBit rate: 863 Kbps\nWidth: 720 pixels\nHeight: 288 pixels\nDisplay aspect ratio: 2.500\nFrame rate: 23.976 fps\nColor space: YUV\nChroma subsampling: 4:2:0\nBit depth: 8 bits\nScan type: Progressive\nCompression mode: Lossy\nBits/(Pixel*Frame): 0.174\nStream size: 610 MiB (86%)\nWriting library: XviD 1.1.0 Beta2 (UTC 2005-04-04)\n\nAudio\nID: 1\nFormat: MPEG Audio\nFormat version: Version 2\nFormat profile: Layer 3\nMode: Joint stereo\nMode extension: MS Stereo\nCodec ID: 55\nCodec ID/Hint: MP3\nDuration: 1h 38mn\nBit rate mode: Constant\nBit rate: 128 Kbps\nChannel(s): 2 channels\nSampling rate: 24.0 KHz\nCompression mode: Lossy\nStream size: 90.4 MiB (13%)\nAlignment: Split accross interleaves\nInterleave, duration: 42 ms (1.00 video frame)\n\nSharpened and Tweaked RGB\nNot the best LiNE hence the reason\nwe did the CAM also\nbut we had the audio so here the TS is\ntake it or leave it\n\n\n\nWhen a group of hard working guys find out they've fallen victim to\na wealthy business man's Ponzi scheme, they conspire to rob his\nhigh-rise residence.\n\n\n\nBen Stiller ... Josh Kovacs\nEddie Murphy ... Slide\nCasey Affleck ... Charlie\nAlan Alda ... Arthur Shaw\nMatthew Broderick ... Mr. Fitzhugh\n","torrent":{"xt":"urn:btih:fa4a33d752de420051d43a00a58db009a509f1ac","amp;dn":"Tower+Heist+2011+TS+READNFO+XviD+-+MiSTERE","amp;tr":["udp%3A%2F%2Ftracker.openbittorrent.com%3A80","udp%3A%2F%2Fopen.demonii.com%3A1337","udp%3A%2F%2Ftracker.coppersurfer.tk%3A6969","udp%3A%2F%2Fexodus.desync.com%3A6969"],"infoHash":"fa4a33d752de420051d43a00a58db009a509f1ac","infoHashBuffer":{"type":"Buffer","data":[250,74,51,215,82,222,66,0,81,212,58,0,165,141,176,9,165,9,241,172]},"announce":[],"urlList":[]}}